<?xml version="1.0" encoding="utf-8"?>
<!-- Generator: Adobe Illustrator 17.0.0, SVG Export Plug-In . SVG Version: 6.00 Build 0)  -->
<!DOCTYPE svg PUBLIC "-//W3C//DTD SVG 1.1//EN" "http://www.w3.org/Graphics/SVG/1.1/DTD/svg11.dtd" [
	<!ENTITY ns_flows "http://ns.adobe.com/Flows/1.0/">
	<!ENTITY ns_extend "http://ns.adobe.com/Extensibility/1.0/">
	<!ENTITY ns_ai "http://ns.adobe.com/AdobeIllustrator/10.0/">
	<!ENTITY ns_graphs "http://ns.adobe.com/Graphs/1.0/">
	<!ENTITY ns_vars "http://ns.adobe.com/Variables/1.0/">
	<!ENTITY ns_imrep "http://ns.adobe.com/ImageReplacement/1.0/">
	<!ENTITY ns_sfw "http://ns.adobe.com/SaveForWeb/1.0/">
	<!ENTITY ns_custom "http://ns.adobe.com/GenericCustomNamespace/1.0/">
	<!ENTITY ns_adobe_xpath "http://ns.adobe.com/XPath/1.0/">
]>
<svg version="1.1" id="Ebene_1" xmlns:x="&ns_extend;" xmlns:i="&ns_ai;" xmlns:graph="&ns_graphs;"
	 xmlns="http://www.w3.org/2000/svg" xmlns:xlink="http://www.w3.org/1999/xlink" xmlns:a="http://ns.adobe.com/AdobeSVGViewerExtensions/3.0/"
	 x="0px" y="0px" width="396.9px" height="283.5px" viewBox="0 0 396.9 283.5" style="enable-background:new 0 0 396.9 283.5;"
	 xml:space="preserve">
<style type="text/css">
	.st0{fill:#3577BB;}
	.st1{fill:#FFFFFF;}
</style>
<metadata>
	<sfw  xmlns="&ns_sfw;">
		<slices></slices>
		<sliceSourceBounds  height="112" width="112" y="-198" x="143" bottomLeftOrigin="true"></sliceSourceBounds>
	</sfw>
</metadata>
<circle class="st0" cx="199" cy="142" r="56"/>
<g>
	<g>
		<path class="st1" d="M225.8,156.2c-0.5,0.7-1.3,1.1-2.1,1.1l-12,0c-0.5,0-1-0.3-1.2-0.7c-0.2-0.5-0.2-1,0.1-1.4l9.7-12.8
			c0.4-0.6,0.4-1.3,0-1.9l-9.7-12.8c-0.3-0.4-0.4-0.9-0.1-1.4c0.2-0.5,0.7-0.7,1.2-0.7h12.1c0.8,0,1.6,0.4,2.1,1.1l10,13.2
			c0.7,0.9,0.7,2.3,0,3.2L225.8,156.2z"/>
		<path class="st1" d="M201.7,126.5c-0.5-0.7-1.3-1.1-2.1-1.1l-13.4,0c-0.8,0-1.6,0.4-2.1,1.1l-21.7,28.6c-0.3,0.4-0.4,0.9-0.1,1.4
			c0.2,0.5,0.7,0.7,1.2,0.7l12.1,0c0.8,0,1.6-0.4,2.1-1.1l14.2-18.7c0.3-0.3,0.6-0.5,1.1-0.5c0.4,0,0.8,0.2,1.1,0.5l2.1,2.8
			c0.5,0.6,0.5,1.5,0,2.2l-9.6,12.7c-0.3,0.4-0.4,0.9-0.1,1.4c0.2,0.5,0.7,0.7,1.2,0.7l12,0c0.8,0,1.6-0.4,2.1-1.1l10-13.2
			c0.7-1,0.7-2.3,0-3.2L201.7,126.5z"/>
	</g>
</g>
</svg>
